#!OML:ASF I:\Actors\actors\Patient Classification 1\Patient 1\Session 1\Subject1.ASF
:FULLY-SPECIFIED
:DEGREES
1192
root 0.972547 17.6002 8.64637 18.9526 21.0463 -8.41114
lowerback 9.48957 4.70182 5.27581
upperback -7.66249 6.85306 -3.58925
thorax -12.6787 2.59853 -8.28075
lowerneck -22.1995 -6.46846 -2.32527
upperneck 8.23884 -10.0915 14.5133
head 7.08269 -3.61611 3.85147
rclavicle -5.96354e-015 5.56597e-015
rhumerus 45.7466 23.2453 -77.4712
rradius 45.2009
rwrist -18.5336
rhand 32.892 -34.6673
rfingers 7.12502
rthumb 56.2865 -411.833
lclavicle -5.96354e-015 5.56597e-015
lhumerus 34.9083 -25.2378 89.1141
lradius 54.4831
lwrist 31.1291
lhand -44.1728 4.98988
lfingers 7.12502
lthumb -16.9875 34.267
rfemur -8.48632 42.3398 17.1109
rtibia -2.1904
rfoot -52.7217 -51.8051
rtoes 36.5059
lfemur -33.0419 -66.3493 21.7581
ltibia -3.477
lfoot -8.56975 64.555
ltoes -0.43558
1193
root 0.966889 17.5986 8.64834 18.8016 21.6066 -8.44738
lowerback 8.40983 5.06496 3.29316
upperback -7.07442 7.13172 -2.23818
thorax -11.684 3.05098 -5.54852
lowerneck -20.7336 -6.50149 -4.56326
upperneck 6.15684 -9.37817 15.5736
head 6.28249 -3.42834 4.67379
rclavicle -3.12092e-014 1.43125e-014
rhumerus 46.3244 24.6695 -74.8406
rradius 45.6623
rwrist -19.4691
rhand 33.0143 -34.6819
rfingers 7.12502
rthumb 56.3946 -411.761
lclavicle -3.12092e-014 1.43125e-014
lhumerus 34.7088 -23.6118 91.4382
lradius 54.9318
lwrist 31.0102
lhand -43.536 5.7785
lfingers 7.12502
lthumb -16.3745 35.1073
rfemur -8.1913 41.7886 17.4847
rtibia -2.20638
rfoot -52.6873 -51.622
rtoes 36.6939
lfemur -34.0228 -66.842 22.819
ltibia -3.34202
lfoot -8.26222 64.769
ltoes -0.912732
1194
root 0.963745 17.5985 8.64622 18.7054 22.1105 -8.52901
lowerback 8.50654 5.18576 3.48135
upperback -7.10536 7.31012 -2.39859
thorax -11.7151 3.11116 -5.86825
lowerneck -20.8011 -6.54372 -4.51876
upperneck 6.20526 -9.45865 15.6323
head 6.31947 -3.454 4.67434
rclavicle -5.40694e-014 -7.95139e-016
rhumerus 45.7499 24.8363 -75.5781
rradius 45.8351
rwrist -19.7474
rhand 32.881 -34.7069
rfingers 7.12502
rthumb 56.2768 -411.88
lclavicle -5.40694e-014 -7.95139e-016
lhumerus 34.4193 -23.4675 90.9365
lradius 55.1468
lwrist 31.5035
lhand -43.0192 6.35765
lfingers 7.12502
lthumb -15.8769 35.7268
rfemur -8.05939 41.1808 17.7739
rtibia -2.15948
rfoot -52.6822 -51.1517
rtoes 37.0282
lfemur -35.0857 -67.2364 23.9597
ltibia -3.19981
lfoot -7.51706 65.0254
ltoes -1.66613
1195
root 0.961889 17.5993 8.64277 18.6677 22.4889 -8.65552
lowerback 8.4099 5.38942 3.49779
upperback -7.07875 7.58307 -2.41943
thorax -11.5895 3.24832 -5.92692
lowerneck -22.3181 -6.62609 -3.4294
upperneck 7.88921 -9.83803 13.8724
head 6.96784 -3.60586 3.85162
rclavicle -9.323e-014 -4.85035e-014
rhumerus 45.4592 24.9294 -76.0218
rradius 45.8551
rwrist -20.314
rhand 32.0907 -34.894
rfingers 7.12502
rthumb 55.5761 -412.608
lclavicle -9.323e-014 -4.85035e-014
lhumerus 34.463 -23.4114 90.3606
lradius 55.0756
lwrist 31.8182
lhand -42.1903 7.02224
lfingers 7.12502
lthumb -15.0785 36.4531
rfemur -8.09019 40.3428 18.0052
rtibia -2.07285
rfoot -52.0235 -50.6062
rtoes 36.9578
lfemur -35.9922 -67.5048 24.9701
ltibia -3.09969
lfoot -6.52133 65.304
ltoes -2.43647
1196
root 0.959362 17.5998 8.63854 18.6654 22.7831 -8.78804
lowerback 8.31931 5.63123 3.48918
upperback -7.07712 7.90284 -2.46458
thorax -11.4902 3.40761 -6.0072
lowerneck -22.3259 -6.73922 -3.54217
upperneck 7.86037 -9.97548 14.0145
head 6.9876 -3.66226 3.89674
rclavicle 1.03368e-014 -7.95139e-016
rhumerus 45.1457 24.9073 -76.5349
rradius 45.8463
rwrist -20.9402
rhand 30.389 -35.2828
rfingers 7.12502
rthumb 54.0563 -414.083
lclavicle 1.03368e-014 -7.95139e-016
lhumerus 34.675 -23.4217 89.7333
lradius 54.674
lwrist 32.1578
lhand -41.0536 7.03173
lfingers 7.12502
lthumb -13.9833 36.5414
rfemur -8.17594 39.6661 18.169
rtibia -2.03251
rfoot -51.315 -50.2416
rtoes 36.7352
lfemur -36.781 -67.692 25.8767
ltibia -3.01282
lfoot -6.36046 65.5621
ltoes -2.50994
1197
root 0.956029 17.6001 8.63338 18.6991 23.027 -8.89384
lowerback 8.28462 5.84715 3.43058
upperback -7.10049 8.18319 -2.51091
thorax -11.4642 3.54748 -6.06493
lowerneck -22.0063 -6.84642 -3.88033
upperneck 7.40902 -10.0398 14.5227
head 6.84864 -3.69265 4.11296
rclavicle -2.64384e-014 1.66979e-014
rhumerus 44.6634 24.7824 -77.4125
rradius 45.9398
rwrist -21.2647
rhand 28.1429 -35.9582
rfingers 7.12502
rthumb 52.0298 -416.046
lclavicle -2.64384e-014 1.66979e-014
lhumerus 35.0004 -23.279 89.1565
lradius 54.0193
lwrist 32.7644
lhand -39.7498 6.61379
lfingers 7.12502
lthumb -12.7265 36.206
rfemur -8.29757 39.3272 18.2267
rtibia -2.01877
rfoot -51.1734 -49.8878
rtoes 36.8961
lfemur -37.5088 -67.8256 26.7201
ltibia -2.96135
lfoot -6.84123 65.7615
ltoes -2.13327
